<svg width="52" height="52" viewBox="0 0 52 52" fill="none" xmlns="http://www.w3.org/2000/svg">
<g filter="url(#filter0_d_1_2719)">
<circle cx="25.6" cy="24.308" r="17.6" fill="#53B175"/>
<circle cx="25.6" cy="24.308" r="17.6" stroke="#53B175"/>
</g>
<path d="M20.7437 24.5256C20.7437 22.4958 21.1075 20.9059 21.8349 19.756C22.5741 18.6062 23.7944 18.0312 25.4957 18.0312C27.1971 18.0312 28.4115 18.6062 29.1389 19.756C29.8781 20.9059 30.2477 22.4958 30.2477 24.5256C30.2477 26.5672 29.8781 28.1688 29.1389 29.3304C28.4115 30.492 27.1971 31.0728 25.4957 31.0728C23.7944 31.0728 22.5741 30.492 21.8349 29.3304C21.1075 28.1688 20.7437 26.5672 20.7437 24.5256ZM27.8189 24.5256C27.8189 23.6574 27.7603 22.9299 27.6429 22.3432C27.5373 21.7448 27.3144 21.2579 26.9741 20.8824C26.6456 20.507 26.1528 20.3192 25.4957 20.3192C24.8387 20.3192 24.34 20.507 23.9997 20.8824C23.6712 21.2579 23.4483 21.7448 23.3309 22.3432C23.2253 22.9299 23.1725 23.6574 23.1725 24.5256C23.1725 25.4174 23.2253 26.1683 23.3309 26.7784C23.4365 27.3768 23.6595 27.8638 23.9997 28.2392C24.34 28.603 24.8387 28.7848 25.4957 28.7848C26.1528 28.7848 26.6515 28.603 26.9917 28.2392C27.332 27.8638 27.5549 27.3768 27.6605 26.7784C27.7661 26.1683 27.8189 25.4174 27.8189 24.5256Z" fill="white"/>
<defs>
<filter id="filter0_d_1_2719" x="0" y="0.708008" width="51.2002" height="51.2" filterUnits="userSpaceOnUse" color-interpolation-filters="sRGB">
<feFlood flood-opacity="0" result="BackgroundImageFix"/>
<feColorMatrix in="SourceAlpha" type="matrix" values="0 0 0 0 0 0 0 0 0 0 0 0 0 0 0 0 0 0 127 0" result="hardAlpha"/>
<feOffset dy="2"/>
<feGaussianBlur stdDeviation="4"/>
<feColorMatrix type="matrix" values="0 0 0 0 0.337255 0 0 0 0 0.411765 0 0 0 0 1 0 0 0 0.15 0"/>
<feBlend mode="normal" in2="BackgroundImageFix" result="effect1_dropShadow_1_2719"/>
<feBlend mode="normal" in="SourceGraphic" in2="effect1_dropShadow_1_2719" result="shape"/>
</filter>
</defs>
</svg>
