<svg width="17" height="19" viewBox="0 0 17 19" fill="none" xmlns="http://www.w3.org/2000/svg">
<path d="M1.97852 1.25C1.647 1.25 1.32905 1.3817 1.09463 1.61612C0.860212 1.85054 0.728516 2.16848 0.728516 2.5V3.75C0.728516 4.08152 0.860212 4.39946 1.09463 4.63388C1.32905 4.8683 1.647 5 1.97852 5H2.60352V16.25C2.60352 16.913 2.86691 17.5489 3.33575 18.0178C3.80459 18.4866 4.44047 18.75 5.10352 18.75H12.6035C13.2666 18.75 13.9024 18.4866 14.3713 18.0178C14.8401 17.5489 15.1035 16.913 15.1035 16.25V5H15.7285C16.06 5 16.378 4.8683 16.6124 4.63388C16.8468 4.39946 16.9785 4.08152 16.9785 3.75V2.5C16.9785 2.16848 16.8468 1.85054 16.6124 1.61612C16.378 1.3817 16.06 1.25 15.7285 1.25H11.3535C11.3535 0.918479 11.2218 0.600537 10.9874 0.366117C10.753 0.131696 10.435 0 10.1035 0L7.60352 0C7.272 0 6.95405 0.131696 6.71963 0.366117C6.48521 0.600537 6.35352 0.918479 6.35352 1.25H1.97852ZM5.72852 6.25C5.89428 6.25 6.05325 6.31585 6.17046 6.43306C6.28767 6.55027 6.35352 6.70924 6.35352 6.875V15.625C6.35352 15.7908 6.28767 15.9497 6.17046 16.0669C6.05325 16.1842 5.89428 16.25 5.72852 16.25C5.56276 16.25 5.40378 16.1842 5.28657 16.0669C5.16936 15.9497 5.10352 15.7908 5.10352 15.625V6.875C5.10352 6.70924 5.16936 6.55027 5.28657 6.43306C5.40378 6.31585 5.56276 6.25 5.72852 6.25ZM8.85352 6.25C9.01928 6.25 9.17825 6.31585 9.29546 6.43306C9.41267 6.55027 9.47852 6.70924 9.47852 6.875V15.625C9.47852 15.7908 9.41267 15.9497 9.29546 16.0669C9.17825 16.1842 9.01928 16.25 8.85352 16.25C8.68776 16.25 8.52878 16.1842 8.41157 16.0669C8.29436 15.9497 8.22852 15.7908 8.22852 15.625V6.875C8.22852 6.70924 8.29436 6.55027 8.41157 6.43306C8.52878 6.31585 8.68776 6.25 8.85352 6.25ZM12.6035 6.875V15.625C12.6035 15.7908 12.5377 15.9497 12.4205 16.0669C12.3032 16.1842 12.1443 16.25 11.9785 16.25C11.8128 16.25 11.6538 16.1842 11.5366 16.0669C11.4194 15.9497 11.3535 15.7908 11.3535 15.625V6.875C11.3535 6.70924 11.4194 6.55027 11.5366 6.43306C11.6538 6.31585 11.8128 6.25 11.9785 6.25C12.1443 6.25 12.3032 6.31585 12.4205 6.43306C12.5377 6.55027 12.6035 6.70924 12.6035 6.875Z" fill="#E63946"/>
</svg>
